<svg width="32" height="32" viewBox="0 0 32 32" fill="none" xmlns="http://www.w3.org/2000/svg">
  <circle cx="16" cy="16" r="16" fill="#FF007A"/>
  <path d="M8.5 20.5C8.5 18.5 10 16.5 12.5 15.5C13.5 15 14.5 14.5 15.5 13.5C16.5 12.5 17 11 17 9.5C17 8.5 16.5 7.5 15.5 7C14.5 6.5 13.5 6.5 12.5 7C11.5 7.5 11 8.5 11 9.5" stroke="white" stroke-width="2" stroke-linecap="round"/>
  <path d="M23.5 20.5C23.5 18.5 22 16.5 19.5 15.5C18.5 15 17.5 14.5 16.5 13.5C15.5 12.5 15 11 15 9.5C15 8.5 15.5 7.5 16.5 7C17.5 6.5 18.5 6.5 19.5 7C20.5 7.5 21 8.5 21 9.5" stroke="white" stroke-width="2" stroke-linecap="round"/>
  <circle cx="16" cy="22" r="2" fill="white"/>
</svg>